<mxfile host="app.diagrams.net" modified="2024-03-28T10:18:46.175Z" agent="Mozilla/5.0 (Windows NT 10.0; Win64; x64) AppleWebKit/537.36 (KHTML, like Gecko) Chrome/123.0.0.0 Safari/537.36" version="24.0.7" etag="Dvi7m7sUSLWhAu1kRQCq" type="github">
  <diagram name="Page-1" id="R6yMwkdoE11T1JhkiRt7">
    <mxGraphModel>
      <root>
        <mxCell id="0" />
        <mxCell id="1" parent="0" />
      </root>
    </mxGraphModel>
  </diagram>
</mxfile>
